<?xml version="1.0" encoding="utf-8"?>
<!-- Generator: Adobe Illustrator 19.1.0, SVG Export Plug-In . SVG Version: 6.00 Build 0)  -->
<svg version="1.1"
	 id="svg2" inkscape:version="0.48.2 r9819" sodipodi:docname="bujung2012-01" xmlns:ns1="http://sozi.baierouge.fr" xmlns:cc="http://creativecommons.org/ns#" xmlns:dc="http://purl.org/dc/elements/1.1/" xmlns:svg="http://www.w3.org/2000/svg" xmlns:sodipodi="http://sodipodi.sourceforge.net/DTD/sodipodi-0.dtd" xmlns:inkscape="http://www.inkscape.org/namespaces/inkscape" xmlns:rdf="http://www.w3.org/1999/02/22-rdf-syntax-ns#"
	 xmlns="http://www.w3.org/2000/svg" xmlns:xlink="http://www.w3.org/1999/xlink" x="0px" y="0px" width="266px" height="423.6px"
	 viewBox="257.6 -267.1 266 423.6" style="enable-background:new 257.6 -267.1 266 423.6;" xml:space="preserve">
<style type="text/css">
	.st0{fill:#FFFFFF;stroke:#000000;stroke-width:16.025;}
	.st1{stroke:#000000;stroke-width:11.559;}
	.st2{stroke:#000000;stroke-width:8.1576;}
	.st3{fill:#FFFFFF;stroke:#000000;stroke-width:6.3;}
	.st4{stroke:#000000;stroke-width:6.3;}
	.st5{fill:#999999;}
</style>
<sodipodi:namedview  inkscape:document-units="px" inkscape:window-y="-4" inkscape:window-width="1280" inkscape:pageshadow="2" inkscape:window-x="-4" inkscape:pageopacity="0.0" inkscape:window-maximized="1" inkscape:current-layer="layer1" inkscape:window-height="968" id="base" bordercolor="#666666" pagecolor="#ffffff" inkscape:cy="631.02855" borderopacity="1.0" showgrid="false" inkscape:zoom="0.5" inkscape:cx="297.49049">
	</sodipodi:namedview>
<path id="path2987" inkscape:connector-curvature="0" sodipodi:nodetypes="sscscscscscscscscssscscss" class="st0" d="M295.1-258.7
	c-3.5-5-12.9,46.3-28.1,98.4c-4.2,14.3,1.8,28.8,3.9,41.3c3.6,6.4,7.2,15.7,10.3,27.2c1,3.9,1.9,7.9,2.7,11.8
	c-8.5,21.4-13.2,45.7-13.2,71.5c0,23.7,4.1,46.2,11.3,66.4c13.7,10.3,26.9,25.3,37.8,44c5.1,8.7,9.3,17.7,12.7,26.6
	c17.4,12.7,37.5,20,58.9,20c20.2,0,39.3-6.5,56-17.9c3.5-9.6,7.9-19.2,13.4-28.6c11.7-20,26-35.8,40.7-46.1
	c6.8-19.6,10.6-41.3,10.6-64.2c0-24.7-4.4-48.1-12.3-69c0.7-5.1,1.5-10.1,2.6-15.1c2.6-12.5,6-22.5,9.6-29
	c1.4-12.3,6.2-26.4,1.6-40.1c-18-54.7-27.9-101.6-33.1-97.2c-6.6,5.5-29.5,44.4-28.1,98.4c0.2,5.9,0.5,11.6,0.9,17.2
	c-18.1-14.1-40.1,3.3-62.7,3.3c-23.2,0-44.2-17-62.6-2.2c0.2-6.3,0.3-12.9,0.1-19.6C326.8-215.5,317.1-227.8,295.1-258.7
	L295.1-258.7z"/>
<path id="path3763" inkscape:connector-curvature="0" sodipodi:nodetypes="sscscscscss" class="st1" d="M390.8,72.7
	c-11,0-36.2,21.5-36.2,36.3c0,4,1.2,7.9,3.5,11.3c4.2,1.8,8.2,4.3,11.6,7.5c1.6,1.5,2.8,3,3.9,4.5c5.3,2.2,11.5,3.4,18,3.4
	c6.2,0,12-1.1,17.1-3c1.1-1.6,2.4-3.3,4.1-4.9c3.6-3.4,8-6.1,12.5-7.8c2.1-3.3,3.2-7,3.2-10.9C428.4,94.2,402.5,72.7,390.8,72.7
	L390.8,72.7z"/>
<path id="path3779" inkscape:connector-curvature="0" class="st2" d="M363.9-0.4c41.7-70.7-30-126.9-66.7-47.4
	C280.8-12.2,348.1,11.1,363.9-0.4z"/>
<path id="path3783" class="st3" d="M347.3-38.7c0,5-4.6,9.1-10.3,9.1c-5.7,0-10.3-4.1-10.3-9.1s4.6-9.1,10.3-9.1
	C342.7-47.8,347.3-43.7,347.3-38.7z"/>
<path id="path3785" class="st4" d="M449-34.2c0,5-4.6,9.1-10.3,9.1c-5.7,0-10.3-4.1-10.3-9.1s4.6-9.1,10.3-9.1
	C444.4-43.3,449-39.3,449-34.2z"/>
<path id="path3791" inkscape:connector-curvature="0" class="st5" d="M293.5,12.2c8.2,12.2,20.6,19.2,32,27.6
	c8.5,6.3,24,23.2,28.5,32.4c0.4,0.8-7.5,22-8.1,24c-1.7,5.2-0.6,13-0.6,18.6c0,0.2,1.1,6,0.6,6c-1.9,0-9.8-12.4-11.1-15
	c-10.4-21.5-33.7-38.3-42.5-56.4c-2.7-5.7-1.2-15.3-1.2-21.6C291.1,22.3,290,16.6,293.5,12.2L293.5,12.2z"/>
<path id="path3793" inkscape:connector-curvature="0" class="st5" d="M320.2-138.5c-6.2,1.9-14,5.9-18,11.4c-3,4.1-6.9,8.9-8.7,14.4
	c-1,3.1-1.1,10.1-2.9,12c-3.4,3.5-5.7-19.6-7-21.6c-4.1-6.4-7.4-37.6-4.7-46.2c3.2-10,7-21.1,11.6-30.6c1.4-3-0.2-7.5,0.6-10.8
	c1.3-5.2,3.1-10.7,4.7-15.6c0.4-1.3-0.3-15,0-15c0.3,0,1,4.5,1.2,4.8c2,4.2,3.1,6.5,5.2,10.8c2.3,4.7,4.7,8.5,7,13.2
	c1,2-0.4,5.2,0.6,7.2c3.6,7.4,4.5,15,7,22.8C321-168.4,311.6-147.4,320.2-138.5L320.2-138.5z"/>
<path id="path3795" inkscape:connector-curvature="0" class="st5" d="M458.8-138.5c6.2,1.9,14,5.9,18,11.4c3,4.1,6.9,8.9,8.7,14.4
	c1,3.1,1.1,10.1,2.9,12c3.4,3.5,5.7-19.6,7-21.6c4.1-6.4,7.4-37.6,4.7-46.2c-3.2-10-7-21.1-11.6-30.6c-1.4-3,0.2-7.5-0.6-10.8
	c-1.3-5.2-3.1-10.7-4.7-15.6c-0.4-1.3,0.3-15,0-15c-0.3,0-1,4.5-1.2,4.8c-2,4.2-3.1,6.5-5.2,10.8c-2.3,4.7-4.7,8.5-7,13.2
	c-1,2,0.4,5.2-0.6,7.2c-3.6,7.4-4.5,15-7,22.8C458-168.4,467.5-147.4,458.8-138.5L458.8-138.5z"/>
<path id="path3797" inkscape:connector-curvature="0" class="st5" d="M489.1,12.2c-8.2,12.2-20.6,19.2-32,27.6
	c-8.5,6.3-24,23.2-28.5,32.4c-0.4,0.8,7.5,22,8.1,24c1.7,5.2,0.6,13,0.6,18.6c0,0.2-1.1,6-0.6,6c1.9,0,9.8-12.4,11.1-15
	c10.4-21.5,33.7-38.3,42.5-56.4c2.7-5.7,1.2-15.3,1.2-21.6C491.4,22.3,492.5,16.6,489.1,12.2L489.1,12.2z"/>
</svg>
