<?xml version="1.0" encoding="utf-8"?>
<!-- Generator: Adobe Illustrator 19.1.0, SVG Export Plug-In . SVG Version: 6.00 Build 0)  -->
<svg version="1.1"
	 id="svg2965" xmlns:cc="http://creativecommons.org/ns#" xmlns:dc="http://purl.org/dc/elements/1.1/" xmlns:svg="http://www.w3.org/2000/svg" xmlns:rdf="http://www.w3.org/1999/02/22-rdf-syntax-ns#"
	 xmlns="http://www.w3.org/2000/svg" xmlns:xlink="http://www.w3.org/1999/xlink" x="0px" y="0px" width="50px" height="50px"
	 viewBox="-174 176 50 50" style="enable-background:new -174 176 50 50;" xml:space="preserve">
<style type="text/css">
	.st0{fill:#103683;}
	.st1{fill:url(#path4089_1_);}
	.st2{fill:#EEEEEE;}
	.st3{fill:url(#path4091_1_);}
</style>
<g id="layer1" transform="translate(-322.53 -473.84)">
	<g id="g5314" transform="matrix(.75853 0 0 .75853 57.261 203.74)">
		<path id="path4087" class="st0" d="M186.2,621.1c0,18.2-14.8,33-33,33s-33-14.8-33-33s14.8-33,33-33S186.2,602.9,186.2,621.1
			L186.2,621.1z"/>
		
			<linearGradient id="path4089_1_" gradientUnits="userSpaceOnUse" x1="1472.0657" y1="-424.7613" x2="1474.3867" y2="-380.1765" gradientTransform="matrix(0.5384 0 0 0.559 -640.4916 832.8348)">
			<stop  offset="0" style="stop-color:#0146A8"/>
			<stop  offset="1" style="stop-color:#0146A8;stop-opacity:0"/>
		</linearGradient>
		<path id="path4089" class="st1" d="M184.1,621.5c0,17.5-13.8,31.6-30.8,31.6s-30.8-14.2-30.8-31.6c0-17.5,13.8-31.6,30.8-31.6
			C170.4,589.9,184.1,604,184.1,621.5L184.1,621.5z"/>
		<g id="g4126" transform="matrix(.85187 0 0 .85187 -241.81 5.46)">
			<path id="path4109" class="st2" d="M463.1,696.7c-0.7,0-1.3,0.1-1.9,0.4c-0.9,0.3-1.6,0.8-2.1,1.5l-20.6,26.3
				c-1.4,1.7-0.6,4,1.8,5c0.2,0.1,0.4,0.1,0.6,0.2l18.5-23.7c0.5-0.6,1.2-1.1,2.1-1.5c2.3-0.8,5.1-0.2,6.4,1.5L486,730
				c2.4-1,3.3-3.2,2-5c0,0,0-0.1-0.1-0.1l-20.3-26.5C466.7,697.4,465,696.6,463.1,696.7L463.1,696.7z"/>
			<path id="rect4116" class="st2" d="M463,708.8c-0.4,0-0.8,0.1-1.2,0.2c-0.5,0.2-1,0.5-1.3,0.9l-12.6,16.7c0,0.1-0.1,0.1-0.1,0.2
				l0,0l0,0c-0.4,0.6-0.6,1.2-0.6,1.9v14.6c0,2,1.6,3.5,3.6,3.5h7.4v-12.7c0-2,1.6-3.5,3.6-3.5h2.7c2,0,3.6,1.6,3.6,3.5v12.7h7.4
				c2,0,3.6-1.6,3.6-3.5v-14.6c0-0.9-0.4-1.8-0.9-2.4L465.8,710C465.2,709.2,464.1,708.8,463,708.8L463,708.8z"/>
			<path id="rect4124" class="st2" d="M451.3,701.1L451.3,701.1c1.9,0,3.4,2.4,3.4,5.5v0.7c0,3-1.5,5.5-3.4,5.5l0,0
				c-1.9,0-3.4-2.4-3.4-5.5v-0.7C447.9,703.6,449.4,701.1,451.3,701.1z"/>
		</g>
		
			<linearGradient id="path4091_1_" gradientUnits="userSpaceOnUse" x1="1472.5059" y1="-430.6427" x2="1474.2429" y2="-382.5995" gradientTransform="matrix(0.5384 0 0 0.559 -640.4916 832.8348)">
			<stop  offset="0" style="stop-color:#EDF4FD;stop-opacity:0.5285"/>
			<stop  offset="1" style="stop-color:#175BB3;stop-opacity:0"/>
		</linearGradient>
		<path id="path4091" class="st3" d="M153.3,589.9c-17,0-30.8,14.2-30.8,31.6c0,1.1,0.1,2.2,0.2,3.3c15,5.6,38,9.6,61.4-3.1v-0.1
			C184.1,604,170.4,589.9,153.3,589.9L153.3,589.9z"/>
	</g>
</g>
</svg>
