<?xml version="1.0" encoding="utf-8"?>
<!-- Generator: Adobe Illustrator 19.1.0, SVG Export Plug-In . SVG Version: 6.00 Build 0)  -->
<svg version="1.1" id="Layer_1" xmlns="http://www.w3.org/2000/svg" xmlns:xlink="http://www.w3.org/1999/xlink" x="0px" y="0px"
	 width="20px" height="9px" viewBox="-186 195 20 9" style="enable-background:new -186 195 20 9;" xml:space="preserve">
<g>
	<g>
		<path d="M-186,199.6c-0.1-3.4,3.7-5.8,7-4c1.1,0.6,2,1.5,3,2.5c0,0,0.1,0,0.1,0c1.5-1.6,3.8-3.9,6.9-3c1.3,0.4,2.2,1.2,2.7,2.5
			c1.6,4.3-2.9,7.9-6.8,5.5c-1-0.6-1.8-1.4-2.8-2.4c-0.1-0.1-0.1,0-0.1,0c-1.1,1.1-2.3,2.4-3.9,2.9C-183,204.8-185.9,203-186,199.6z
			 M-184.1,199.6c0.1,2,1.6,2.9,3.2,2.6c1.4-0.3,2.6-1.5,3.6-2.6c0,0,0,0,0-0.1c-0.9-0.8-1.7-1.8-2.8-2.3
			C-182.1,196.2-184.1,197.6-184.1,199.6z M-167.9,199.5c-0.1-1.9-1.6-3-3.3-2.6c-1.4,0.3-2.5,1.6-3.5,2.6c0,0,0,0.1,0,0.1
			c1.2,1.1,2.7,2.9,4.6,2.6C-168.9,201.9-167.9,200.8-167.9,199.5z"/>
	</g>
</g>
</svg>
