<?xml version="1.0" encoding="utf-8"?>
<!-- Generator: Adobe Illustrator 19.1.0, SVG Export Plug-In . SVG Version: 6.00 Build 0)  -->
<svg version="1.1"
	 id="svg4619" inkscape:version="0.91 r13725" sodipodi:docname="mountain-15.svg" xmlns:cc="http://creativecommons.org/ns#" xmlns:dc="http://purl.org/dc/elements/1.1/" xmlns:svg="http://www.w3.org/2000/svg" xmlns:sodipodi="http://sodipodi.sourceforge.net/DTD/sodipodi-0.dtd" xmlns:inkscape="http://www.inkscape.org/namespaces/inkscape" xmlns:rdf="http://www.w3.org/1999/02/22-rdf-syntax-ns#"
	 xmlns="http://www.w3.org/2000/svg" xmlns:xlink="http://www.w3.org/1999/xlink" x="0px" y="0px" width="25px" height="21.2px"
	 viewBox="-192 193 25 21.2" style="enable-background:new -192 193 25 21.2;" xml:space="preserve">
<path id="path5571" inkscape:connector-curvature="0" sodipodi:nodetypes="sccssssccsccccccccc" d="M-179.5,193
	c-0.6,0-0.8,0.4-1.2,0.8l-11.2,18.3c-0.2,0.2-0.2,0.6-0.2,0.8c0,1,0.8,1.3,1.3,1.3h22.3c0.8,0,1.3-0.4,1.3-1.3c0-0.4,0-0.4-0.2-0.8
	l-11-18.3C-178.5,193.4-178.9,193-179.5,193z M-179.5,195.9l6.3,10.6h-1.5l-2.9-2.9l-1.9,2.9l-1.9-2.9l-2.9,2.9h-1.7L-179.5,195.9z"
	/>
</svg>
