<?xml version="1.0" encoding="utf-8"?>
<!-- Generator: Adobe Illustrator 19.1.0, SVG Export Plug-In . SVG Version: 6.00 Build 0)  -->
<svg version="1.1"
	 id="svg2645" inkscape:output_extension="org.inkscape.output.svg.inkscape" sodipodi:version="0.32" inkscape:version="0.45+devel" sodipodi:docname="rain and sleet.svg" xmlns:ns1="http://sozi.baierouge.fr" xmlns:cc="http://creativecommons.org/ns#" xmlns:dc="http://purl.org/dc/elements/1.1/" xmlns:svg="http://www.w3.org/2000/svg" xmlns:sodipodi="http://sodipodi.sourceforge.net/DTD/sodipodi-0.dtd" xmlns:inkscape="http://www.inkscape.org/namespaces/inkscape" xmlns:rdf="http://www.w3.org/1999/02/22-rdf-syntax-ns#"
	 xmlns="http://www.w3.org/2000/svg" xmlns:xlink="http://www.w3.org/1999/xlink" x="0px" y="0px" width="106.2px" height="84.4px"
	 viewBox="-148.1 155.2 106.2 84.4" style="enable-background:new -148.1 155.2 106.2 84.4;" xml:space="preserve">
<style type="text/css">
	.st0{fill:none;stroke:#6798E9;stroke-width:6.154;stroke-linecap:round;stroke-linejoin:round;stroke-miterlimit:1;}
	.st1{fill:#9E9E9E;stroke:#A6A6A6;stroke-width:0.2806;stroke-linecap:round;stroke-miterlimit:1;}
	.st2{fill:#6798E9;stroke:#6798E9;stroke-width:4;stroke-miterlimit:3.2;}
</style>
<sodipodi:namedview  inkscape:document-units="px" inkscape:window-y="20" inkscape:window-width="640" inkscape:pageshadow="2" inkscape:window-x="20" inkscape:pageopacity="0.0" inkscape:current-layer="layer1" inkscape:window-height="649" id="base" bordercolor="#666666" pagecolor="#ffffff" inkscape:cy="42.883705" guidetolerance="10" gridtolerance="10000" objecttolerance="10" borderopacity="1.0" showgrid="false" inkscape:zoom="5.0756485" inkscape:cx="53.98325">
	</sodipodi:namedview>
<g id="layer1" transform="translate(-321.02 -489.48)" inkscape:groupmode="layer" inkscape:label="Layer 1">
	<g id="g13578" transform="translate(289.18 239.04)">
		<path id="path11886" class="st0" d="M-39.2,461.8c8.4-2,13.8-5.1,13.8-8.5c0-0.4-0.2-0.8-0.4-1.2c0.9,0.2,1.8,0.5,2.8,0.5
			c5.5,0,9.9-3.7,9.9-8.3c0-4.6-4.4-8.3-9.9-8.3c-0.7,0-1.2,0.2-1.9,0.3c0.6-1.8,0.9-3.7,0.9-5.7c0-12.1-11-22-24.5-22
			c-9.6,0-17.8,5-21.9,12.2c-1.6-0.9-3.4-1.4-5.3-1.4c-5.7,0-10.5,4.6-12,10.9c-2.5-1-5.4-1.6-8.6-1.6c-9.4,0-17,5.1-17,11.4
			c0,5.7,6.2,10.4,14.3,11.3c-0.4,0.6-0.6,1.2-0.6,1.9c0,2.8,3.6,5.4,9.5,7.3"/>
		<path id="path11884" class="st0" d="M-39.3,461.8c0,0,0.1,0,0.1,0"/>
		<path id="path11073" class="st0" d="M-90,460.6c0,0,0.1,0,0.1,0"/>
		
			<path id="path11873" inkscape:rounded="0.13" inkscape:randomized="0" inkscape:flatsided="false" sodipodi:sides="10" sodipodi:cx="165.33723" sodipodi:cy="356.49231" sodipodi:arg2="-2.5434327" sodipodi:arg1="-2.8724252" sodipodi:r1="27.328985" sodipodi:type="star" sodipodi:r2="10.240669" class="st1" d="
			M-85.5,449.1c0.3-1,7.8,1.6,8.4,0.7s-4.9-6.7-4-7.3c0.9-0.7,5.3,5.9,6.4,5.5c1-0.4,0-8.2,1-8.3c1.1,0,0.9,7.9,1.9,8.2
			c1,0.3,4.8-6.7,5.7-6.1c0.9,0.6-3.9,6.9-3.3,7.8c0.7,0.8,7.8-2.6,8.2-1.6c0.4,1-7.2,3.3-7.2,4.4c0.1,1.1,7.9,2.5,7.6,3.6
			c-0.3,1-7.8-1.6-8.4-0.7c-0.6,0.9,4.9,6.6,4,7.3c-0.9,0.7-5.3-5.9-6.4-5.5c-1,0.4,0,8.2-1,8.3c-1.1,0-0.9-7.9-1.9-8.2
			c-1-0.3-4.8,6.7-5.7,6.1c-0.9-0.6,3.9-6.9,3.3-7.8c-0.7-0.8-7.8,2.6-8.2,1.6c-0.4-1,7.2-3.3,7.2-4.4
			C-78,451.6-85.8,450.1-85.5,449.1z"/>
		<path id="path11888" sodipodi:nodetypes="cccc" class="st2" d="M-53,451.6c-8.1,7.1,1.4,13.2,5,3.4l2.8-9.1L-53,451.6L-53,451.6z"
			/>
		<path id="path11890" sodipodi:nodetypes="cccc" class="st2" d="M-85.6,476.6c-8.1,7.1,1.4,13.2,5,3.4l2.8-9.1L-85.6,476.6
			L-85.6,476.6z"/>
		
			<path id="path11894" inkscape:rounded="0.13" inkscape:randomized="0" inkscape:flatsided="false" sodipodi:sides="10" sodipodi:cx="165.33723" sodipodi:cy="356.49231" sodipodi:arg2="-2.5434327" sodipodi:arg1="-2.8724252" sodipodi:r1="27.328985" sodipodi:type="star" sodipodi:r2="10.240669" class="st1" d="
			M-69.9,473.6c0.3-1,7.8,1.6,8.4,0.7s-4.9-6.7-4-7.3c0.9-0.7,5.3,5.9,6.4,5.5c1-0.4,0-8.2,1-8.3c1.1,0,0.9,7.9,1.9,8.2
			c1,0.3,4.8-6.7,5.7-6.1c0.9,0.6-3.9,6.9-3.3,7.8c0.7,0.8,7.8-2.6,8.2-1.6c0.4,1-7.2,3.3-7.2,4.4c0.1,1.1,7.9,2.5,7.6,3.6
			c-0.3,1-7.8-1.6-8.4-0.7c-0.6,0.9,4.9,6.6,4,7.3c-0.9,0.7-5.3-5.9-6.4-5.5c-1,0.4,0,8.2-1,8.3c-1.1,0-0.9-7.9-1.9-8.2
			c-1-0.3-4.8,6.7-5.7,6.1c-0.9-0.6,3.9-6.9,3.3-7.8c-0.7-0.8-7.8,2.6-8.2,1.6c-0.4-1,7.2-3.3,7.2-4.4
			C-62.4,476.1-70.2,474.7-69.9,473.6z"/>
	</g>
</g>
</svg>
